<mxfile host="Electron" modified="2023-05-08T19:23:28.116Z" agent="Mozilla/5.0 (Windows NT 10.0; Win64; x64) AppleWebKit/537.36 (KHTML, like Gecko) draw.io/21.2.1 Chrome/112.0.5615.87 Electron/24.1.2 Safari/537.36" etag="MbQVIO4C1FKqMru3MMfL" version="21.2.1" type="device">
  <diagram name="Seite-1" id="IeATwvXCXDI_14NGYykI">
    <mxGraphModel dx="1098" dy="1188" grid="1" gridSize="10" guides="1" tooltips="1" connect="1" arrows="1" fold="1" page="1" pageScale="1" pageWidth="827" pageHeight="1169" math="0" shadow="0">
      <root>
        <mxCell id="0" />
        <mxCell id="1" parent="0" />
        <mxCell id="JLQZeM5ndhBhVhwd5tp5-1" value="Beastopia&amp;nbsp;- Create Group" style="strokeWidth=1;shadow=0;dashed=0;align=center;html=1;shape=mxgraph.mockup.containers.window;align=left;verticalAlign=top;spacingLeft=8;strokeColor2=#008cff;strokeColor3=#c4c4c4;fontColor=#666666;mainText=;fontSize=17;labelBackgroundColor=none;whiteSpace=wrap;" vertex="1" parent="1">
          <mxGeometry x="82" y="40" width="663" height="500" as="geometry" />
        </mxCell>
        <mxCell id="JLQZeM5ndhBhVhwd5tp5-2" value="" style="verticalLabelPosition=bottom;shadow=0;dashed=0;align=center;html=1;verticalAlign=top;strokeWidth=1;shape=mxgraph.mockup.graphics.simpleIcon;strokeColor=#999999;" vertex="1" parent="1">
          <mxGeometry x="82" y="71" width="663" height="469" as="geometry" />
        </mxCell>
        <mxCell id="JLQZeM5ndhBhVhwd5tp5-3" value="&lt;p style=&quot;line-height: 20%;&quot;&gt;&lt;br&gt;&lt;/p&gt;" style="strokeWidth=1;shadow=0;dashed=0;align=center;html=1;shape=mxgraph.mockup.text.textBox;fontColor=#666666;align=left;fontSize=17;spacingLeft=4;spacingTop=-3;whiteSpace=wrap;strokeColor=#666666;mainText=" vertex="1" parent="1">
          <mxGeometry x="102" y="145.13" width="210" height="320.25" as="geometry" />
        </mxCell>
        <mxCell id="JLQZeM5ndhBhVhwd5tp5-4" value="" style="verticalLabelPosition=bottom;shadow=0;dashed=0;align=center;html=1;verticalAlign=top;strokeWidth=1;shape=mxgraph.mockup.navigation.scrollBar;strokeColor=#999999;barPos=100;fillColor2=#99ddff;strokeColor2=none;direction=north;" vertex="1" parent="1">
          <mxGeometry x="292" y="174.88" width="20" height="290" as="geometry" />
        </mxCell>
        <mxCell id="JLQZeM5ndhBhVhwd5tp5-5" value="&lt;font style=&quot;font-size: 14px;&quot;&gt;Alice&lt;/font&gt;" style="strokeWidth=1;shadow=0;dashed=0;align=center;html=1;shape=mxgraph.mockup.forms.searchBox;strokeColor=#999999;mainText=;strokeColor2=#008cff;fontColor=#666666;fontSize=17;align=left;spacingLeft=3;whiteSpace=wrap;" vertex="1" parent="1">
          <mxGeometry x="102" y="145.63" width="209" height="30" as="geometry" />
        </mxCell>
        <mxCell id="JLQZeM5ndhBhVhwd5tp5-6" value="" style="strokeWidth=1;shadow=0;dashed=0;align=center;html=1;shape=mxgraph.mockup.text.textBox;fontColor=#666666;align=left;fontSize=17;spacingLeft=4;spacingTop=-3;strokeColor=#666666;mainText=;whiteSpace=wrap;" vertex="1" parent="1">
          <mxGeometry x="102" y="115.13" width="210" height="30" as="geometry" />
        </mxCell>
        <mxCell id="JLQZeM5ndhBhVhwd5tp5-7" value="Add User" style="text;html=1;strokeColor=none;fillColor=none;align=center;verticalAlign=middle;whiteSpace=wrap;rounded=0;fontSize=16;" vertex="1" parent="1">
          <mxGeometry x="134.5" y="114.63" width="144" height="30" as="geometry" />
        </mxCell>
        <mxCell id="JLQZeM5ndhBhVhwd5tp5-8" value="&lt;p style=&quot;line-height: 20%;&quot;&gt;&lt;br&gt;&lt;/p&gt;" style="strokeWidth=1;shadow=0;dashed=0;align=center;html=1;shape=mxgraph.mockup.text.textBox;fontColor=#666666;align=left;fontSize=17;spacingLeft=4;spacingTop=-3;whiteSpace=wrap;strokeColor=#666666;mainText=" vertex="1" parent="1">
          <mxGeometry x="414" y="117" width="260" height="348.88" as="geometry" />
        </mxCell>
        <mxCell id="JLQZeM5ndhBhVhwd5tp5-9" value="&lt;i&gt;Placeholder&lt;/i&gt;" style="strokeWidth=1;shadow=0;dashed=0;align=center;html=1;shape=mxgraph.mockup.forms.pwField;strokeColor=#999999;mainText=;align=left;fontColor=#666666;fontSize=17;spacingLeft=3;" vertex="1" parent="1">
          <mxGeometry x="424" y="144.63" width="230" height="24" as="geometry" />
        </mxCell>
        <mxCell id="JLQZeM5ndhBhVhwd5tp5-10" value="&lt;b&gt;Groupname&lt;/b&gt;" style="text;html=1;strokeColor=none;fillColor=none;align=left;verticalAlign=middle;whiteSpace=wrap;overflow=hidden;" vertex="1" parent="1">
          <mxGeometry x="424" y="124.63" width="90" height="20" as="geometry" />
        </mxCell>
        <mxCell id="JLQZeM5ndhBhVhwd5tp5-11" value="&lt;p style=&quot;line-height: 20%;&quot;&gt;&lt;br&gt;&lt;/p&gt;" style="strokeWidth=1;shadow=0;dashed=0;align=center;html=1;shape=mxgraph.mockup.text.textBox;fontColor=#666666;align=left;fontSize=17;spacingLeft=4;spacingTop=-3;whiteSpace=wrap;strokeColor=#666666;mainText=" vertex="1" parent="1">
          <mxGeometry x="414" y="280.13" width="240" height="150" as="geometry" />
        </mxCell>
        <mxCell id="JLQZeM5ndhBhVhwd5tp5-12" value="" style="verticalLabelPosition=bottom;shadow=0;dashed=0;align=center;html=1;verticalAlign=top;strokeWidth=1;shape=mxgraph.mockup.navigation.scrollBar;strokeColor=#999999;barPos=100;fillColor2=#99ddff;strokeColor2=none;direction=north;" vertex="1" parent="1">
          <mxGeometry x="654" y="220" width="20" height="210.13" as="geometry" />
        </mxCell>
        <mxCell id="JLQZeM5ndhBhVhwd5tp5-13" value="" style="rounded=0;whiteSpace=wrap;html=1;strokeColor=#666666;" vertex="1" parent="1">
          <mxGeometry x="414" y="220.13" width="240" height="60" as="geometry" />
        </mxCell>
        <mxCell id="JLQZeM5ndhBhVhwd5tp5-14" value="&lt;p style=&quot;line-height: 120%;&quot;&gt;&lt;span style=&quot;font-size: 14px;&quot;&gt;AnotherUser&lt;/span&gt;&lt;/p&gt;" style="text;html=1;strokeColor=none;fillColor=none;align=left;verticalAlign=middle;whiteSpace=wrap;rounded=0;" vertex="1" parent="1">
          <mxGeometry x="477" y="229.13" width="98" height="12.5" as="geometry" />
        </mxCell>
        <mxCell id="JLQZeM5ndhBhVhwd5tp5-15" value="" style="verticalLabelPosition=bottom;shadow=0;dashed=0;align=center;html=1;verticalAlign=top;strokeWidth=1;shape=mxgraph.mockup.containers.userMale;strokeColor=#666666;strokeColor2=#008cff;" vertex="1" parent="1">
          <mxGeometry x="422" y="229.13" width="44" height="42" as="geometry" />
        </mxCell>
        <mxCell id="JLQZeM5ndhBhVhwd5tp5-16" value="" style="ellipse;whiteSpace=wrap;html=1;aspect=fixed;fillColor=#60a917;fontColor=#ffffff;strokeColor=#2D7600;" vertex="1" parent="1">
          <mxGeometry x="456" y="261.13" width="10" height="10" as="geometry" />
        </mxCell>
        <mxCell id="JLQZeM5ndhBhVhwd5tp5-17" value="" style="html=1;verticalLabelPosition=bottom;align=center;labelBackgroundColor=#ffffff;verticalAlign=top;strokeWidth=2;strokeColor=#B20000;shadow=0;dashed=0;shape=mxgraph.ios7.icons.delete;fillColor=#FF9999;fontColor=#ffffff;" vertex="1" parent="1">
          <mxGeometry x="480" y="250.13" width="20" height="20" as="geometry" />
        </mxCell>
        <mxCell id="JLQZeM5ndhBhVhwd5tp5-18" value="" style="strokeWidth=1;shadow=0;dashed=0;align=center;html=1;shape=mxgraph.mockup.text.textBox;fontColor=#666666;align=left;fontSize=17;spacingLeft=4;spacingTop=-3;whiteSpace=wrap;strokeColor=#666666;mainText=" vertex="1" parent="1">
          <mxGeometry x="549" y="430.13" width="125" height="35.75" as="geometry" />
        </mxCell>
        <mxCell id="JLQZeM5ndhBhVhwd5tp5-19" value="&lt;font style=&quot;font-size: 12px;&quot;&gt;Create Group&lt;/font&gt;" style="text;html=1;strokeColor=none;fillColor=none;align=center;verticalAlign=middle;whiteSpace=wrap;rounded=0;" vertex="1" parent="1">
          <mxGeometry x="560" y="438.38" width="100" height="19.25" as="geometry" />
        </mxCell>
        <mxCell id="JLQZeM5ndhBhVhwd5tp5-20" value="Back" style="text;html=1;strokeColor=none;fillColor=none;align=center;verticalAlign=middle;whiteSpace=wrap;rounded=0;" vertex="1" parent="1">
          <mxGeometry x="422" y="433.01" width="110" height="30" as="geometry" />
        </mxCell>
        <mxCell id="JLQZeM5ndhBhVhwd5tp5-21" value="" style="strokeWidth=1;shadow=0;dashed=0;align=center;html=1;shape=mxgraph.mockup.text.textBox;fontColor=#666666;align=left;fontSize=17;spacingLeft=4;spacingTop=-3;strokeColor=#666666;mainText=;whiteSpace=wrap;" vertex="1" parent="1">
          <mxGeometry x="414" y="190.13" width="260" height="30" as="geometry" />
        </mxCell>
        <mxCell id="JLQZeM5ndhBhVhwd5tp5-22" value="Added Users" style="text;html=1;strokeColor=none;fillColor=none;align=center;verticalAlign=middle;whiteSpace=wrap;rounded=0;fontSize=16;" vertex="1" parent="1">
          <mxGeometry x="462" y="190.13" width="168" height="30" as="geometry" />
        </mxCell>
        <mxCell id="JLQZeM5ndhBhVhwd5tp5-23" value="" style="rounded=0;whiteSpace=wrap;html=1;strokeColor=#666666;" vertex="1" parent="1">
          <mxGeometry x="102" y="175.63" width="190" height="60" as="geometry" />
        </mxCell>
        <mxCell id="JLQZeM5ndhBhVhwd5tp5-24" value="&lt;p style=&quot;line-height: 120%;&quot;&gt;&lt;font style=&quot;font-size: 14px;&quot;&gt;Alice&lt;/font&gt;&lt;/p&gt;" style="text;html=1;strokeColor=none;fillColor=none;align=left;verticalAlign=middle;whiteSpace=wrap;rounded=0;" vertex="1" parent="1">
          <mxGeometry x="167" y="184.63" width="114" height="12.5" as="geometry" />
        </mxCell>
        <mxCell id="JLQZeM5ndhBhVhwd5tp5-25" value="" style="verticalLabelPosition=bottom;shadow=0;dashed=0;align=center;html=1;verticalAlign=top;strokeWidth=1;shape=mxgraph.mockup.containers.userFemale;strokeColor=#666666;strokeColor2=#008cff;" vertex="1" parent="1">
          <mxGeometry x="110" y="184.63" width="44" height="42" as="geometry" />
        </mxCell>
        <mxCell id="JLQZeM5ndhBhVhwd5tp5-26" value="" style="ellipse;whiteSpace=wrap;html=1;aspect=fixed;fillColor=#e51400;fontColor=#ffffff;strokeColor=#B20000;" vertex="1" parent="1">
          <mxGeometry x="144" y="216.63" width="10" height="10" as="geometry" />
        </mxCell>
        <mxCell id="JLQZeM5ndhBhVhwd5tp5-27" value="" style="html=1;verticalLabelPosition=bottom;align=center;labelBackgroundColor=#ffffff;verticalAlign=top;strokeWidth=2;shadow=0;dashed=0;shape=mxgraph.ios7.icons.add;fillColor=#d5e8d4;strokeColor=#82b366;" vertex="1" parent="1">
          <mxGeometry x="168" y="206.63" width="20" height="20" as="geometry" />
        </mxCell>
      </root>
    </mxGraphModel>
  </diagram>
</mxfile>
